<svg width="16" height="16" viewBox="0 0 16 16" fill="none" xmlns="http://www.w3.org/2000/svg">
<path fill-rule="evenodd" clip-rule="evenodd" d="M12.5675 4.30102C12.6245 4.24408 12.6697 4.17647 12.7006 4.10204C12.7315 4.02762 12.7474 3.94784 12.7475 3.86726C12.7475 3.78669 12.7317 3.70689 12.7009 3.63243C12.6701 3.55797 12.6249 3.4903 12.568 3.43329C12.5111 3.37628 12.4435 3.33104 12.369 3.30016C12.2946 3.26928 12.2148 3.25336 12.1343 3.25331C12.0537 3.25326 11.9739 3.26908 11.8994 3.29987C11.825 3.33066 11.7573 3.37581 11.7003 3.43275L8.00001 7.13302L4.30081 3.43275C4.18567 3.31761 4.0295 3.25293 3.86667 3.25293C3.70384 3.25293 3.54768 3.31761 3.43254 3.43275C3.3174 3.54789 3.25272 3.70406 3.25272 3.86689C3.25272 4.02972 3.3174 4.18588 3.43254 4.30102L7.13281 8.00022L3.43254 11.6994C3.37553 11.7564 3.3303 11.8241 3.29945 11.8986C3.2686 11.9731 3.25272 12.0529 3.25272 12.1336C3.25272 12.2142 3.2686 12.294 3.29945 12.3685C3.3303 12.443 3.37553 12.5107 3.43254 12.5677C3.54768 12.6828 3.70384 12.7475 3.86667 12.7475C3.9473 12.7475 4.02714 12.7316 4.10162 12.7008C4.17611 12.6699 4.2438 12.6247 4.30081 12.5677L8.00001 8.86742L11.7003 12.5677C11.8154 12.6827 11.9715 12.7472 12.1343 12.7471C12.297 12.747 12.453 12.6823 12.568 12.5672C12.683 12.452 12.7476 12.2959 12.7475 12.1332C12.7474 11.9704 12.6826 11.8144 12.5675 11.6994L8.86721 8.00022L12.5675 4.30102Z" fill="#919191"/>
</svg>
