<svg width="150" height="150" viewBox="0 0 150 150" fill="none" xmlns="http://www.w3.org/2000/svg">
<path d="M81.25 118.75C81.25 120.875 81.5 122.938 81.8125 125H25C21.6848 125 18.5054 123.683 16.1612 121.339C13.817 118.995 12.5 115.815 12.5 112.5V37.5C12.5 34.1848 13.817 31.0054 16.1612 28.6612C18.5054 26.317 21.6848 25 25 25H31.25L43.75 50H62.5L50 25H62.5L75 50H93.75L81.25 25H93.75L106.25 50H125L112.5 25H137.5V86.3125C133.687 84.125 129.5 82.625 125 81.8125V62.5H36L25 40.4375V112.5H81.8125C81.5 114.562 81.25 116.625 81.25 118.75ZM140.875 105.5L132 96.6875L118.75 109.938L105.5 96.6875L96.6875 105.5L109.937 118.75L96.6875 132L105.5 140.875L118.75 127.562L132 140.875L140.875 132L127.562 118.75L140.875 105.5Z" fill="#919191"/>
</svg>
