<svg width="24" height="24" viewBox="0 0 24 24" fill="none" xmlns="http://www.w3.org/2000/svg">
<path fill-rule="evenodd" clip-rule="evenodd" d="M2.29265 2.29289C2.68317 1.90237 3.31634 1.90237 3.70686 2.29289L6.74716 5.33319C8.30872 4.483 10.0992 4 12.0002 4C16.9271 4 21.0951 7.23846 22.4965 11.7004C22.5577 11.8955 22.5577 12.1046 22.4965 12.2997C21.8437 14.3778 20.5922 16.1885 18.9449 17.531L21.7069 20.2929C22.0974 20.6834 22.0974 21.3166 21.7069 21.7071C21.3163 22.0976 20.6832 22.0976 20.2926 21.7071L2.29265 3.70711C1.90212 3.31658 1.90212 2.68342 2.29265 2.29289ZM8.2362 6.82223L9.96794 8.55397C10.5634 8.20229 11.2584 8 11.9998 8C14.2089 8 15.9998 9.79086 15.9998 12C15.9998 12.7414 15.7975 13.4364 15.4458 14.0318L17.5218 16.1078C18.8687 15.0598 19.9094 13.6379 20.4884 12C19.2527 8.50345 15.9175 6 12.0002 6C10.6552 6 9.38077 6.29444 8.2362 6.82223ZM13.9322 12.5182C13.9763 12.353 13.9998 12.1793 13.9998 12C13.9998 10.8954 13.1043 10 11.9998 10C11.8204 10 11.6467 10.0235 11.4816 10.0676L13.9322 12.5182ZM4.62464 8.17378C5.06503 8.50706 5.15187 9.13424 4.81859 9.57463C4.266 10.3048 3.82258 11.1213 3.51203 12C4.74775 15.4965 8.08286 18 12.0002 18C12.578 18 13.1423 17.9457 13.6883 17.8421C14.2309 17.7392 14.7542 18.0957 14.8571 18.6383C14.96 19.1809 14.6035 19.7042 14.0609 19.8071C13.3927 19.9338 12.7037 20 12.0002 20C7.07329 20 2.90535 16.7615 1.50396 12.2996C1.44269 12.1045 1.44269 11.8954 1.50396 11.7003C1.88587 10.4844 2.47286 9.36002 3.22379 8.36773C3.55706 7.92734 4.18425 7.8405 4.62464 8.17378Z" fill="#AAAAAA"/>
</svg>
