<svg width="28" height="29" viewBox="0 0 28 29" fill="none" xmlns="http://www.w3.org/2000/svg">
<path d="M11.6667 9.83301H23.3334M4.66675 19.1663H16.3334" stroke="black" stroke-width="2" stroke-linecap="round"/>
<path d="M4.66675 9.83301C4.66675 11.766 6.23375 13.333 8.16675 13.333C10.0997 13.333 11.6667 11.766 11.6667 9.83301C11.6667 7.90001 10.0997 6.33301 8.16675 6.33301C6.23375 6.33301 4.66675 7.90001 4.66675 9.83301Z" stroke="black" stroke-width="2" stroke-linecap="round"/>
<path d="M16.3335 19.166C16.3335 21.099 17.9005 22.666 19.8335 22.666C21.7665 22.666 23.3335 21.099 23.3335 19.166C23.3335 17.233 21.7665 15.666 19.8335 15.666C17.9005 15.666 16.3335 17.233 16.3335 19.166Z" stroke="black" stroke-width="2" stroke-linecap="round"/>
</svg>
