<svg width="36" height="37" viewBox="0 0 36 37" fill="none" xmlns="http://www.w3.org/2000/svg">
<path d="M10.2601 28.3152H13.5463M11.3066 14.1646L12.9523 6.12634M20.5946 11.6755L22.2403 3.6372M3.51006 16.2552H32.9452V32.2803C32.9452 32.9623 32.6743 33.6164 32.192 34.0986C31.7098 34.5809 31.0558 34.8518 30.3738 34.8518H6.08406C5.40207 34.8518 4.74802 34.5809 4.26578 34.0986C3.78355 33.6164 3.51263 32.9623 3.51263 32.2803L3.51006 16.2552ZM3.50749 16.2552L31.9372 8.63606L30.7029 4.0332C30.6158 3.70674 30.4651 3.40066 30.2596 3.13246C30.0541 2.86425 29.7978 2.63917 29.5052 2.47009C29.2127 2.30102 28.8897 2.19125 28.5547 2.14707C28.2197 2.1029 27.8793 2.12517 27.5529 2.21263L4.0912 8.50234C3.43293 8.67894 2.87169 9.10963 2.5308 9.6998C2.18991 10.29 2.09726 10.9913 2.2732 11.6498L3.50749 16.2552Z" stroke="white" stroke-width="2" stroke-linecap="round" stroke-linejoin="round"/>
</svg>
